<!-- Generated by readme-aura https://github.com/collectioneur/readme-aura -->
<svg width="1200" height="84" viewBox="0 0 1200 84" xmlns="http://www.w3.org/2000/svg"><clipPath id="satori_cp-id"><path x="0" y="0" width="1200" height="84" d="M18,0 h1164 a18,18 0 0 1 18,18 v48 a18,18 0 0 1 -18,18 h-1164 a18,18 0 0 1 -18,-18 v-48 a18,18 0 0 1 18,-18"/></clipPath><mask id="satori_om-id"><rect x="0" y="0" width="1200" height="84" fill="#fff"/></mask><path x="0" y="0" width="1200" height="84" fill="#020617" d="M18,0 h1164 a18,18 0 0 1 18,18 v48 a18,18 0 0 1 -18,18 h-1164 a18,18 0 0 1 -18,-18 v-48 a18,18 0 0 1 18,-18"/><clipPath id="satori_cp-id-0" clip-path="url(#satori_cp-id)"><rect x="0" y="0" width="1200" height="84"/></clipPath><mask id="satori_om-id-0"><rect x="0" y="0" width="1200" height="84" fill="#fff" mask="url(#satori_om-id)"/></mask><svg x="0" y="0" width="1200" height="84" preserveAspectRatio="none" clip-path="url(#satori_cp-id-0)" mask="url(#satori_om-id-0)"><defs><linearGradient id="line201" x1="0" x2="1" y1="0" y2="0"><stop offset="0%" stop-color="#020617"></stop><stop offset="35%" stop-color="#2563eb"></stop><stop offset="65%" stop-color="#7c3aed"></stop><stop offset="100%" stop-color="#020617"></stop></linearGradient></defs><rect width="1200" height="84" fill="#020617"></rect><g id="dividerStars201"><circle cx="137" cy="41" r="1" fill="#60a5fa" fill-opacity="0.35"></circle><circle cx="668" cy="60" r="2" fill="#a78bfa" fill-opacity="0.55"></circle><circle cx="987" cy="71" r="2" fill="#93c5fd" fill-opacity="0.70"></circle><circle cx="1160" cy="61" r="1" fill="#93c5fd" fill-opacity="0.90"></circle><circle cx="440" cy="24" r="1" fill="#ffffff" fill-opacity="0.55"></circle><circle cx="490" cy="71" r="1" fill="#a78bfa" fill-opacity="0.45"></circle><circle cx="62" cy="73" r="1" fill="#60a5fa" fill-opacity="0.70"></circle><circle cx="993" cy="12" r="2" fill="#60a5fa" fill-opacity="0.55"></circle><circle cx="1149" cy="48" r="1" fill="#a78bfa" fill-opacity="0.35"></circle><circle cx="902" cy="5" r="1" fill="#ffffff" fill-opacity="0.55"></circle><circle cx="413" cy="52" r="1" fill="#ffffff" fill-opacity="0.45"></circle><circle cx="515" cy="75" r="2" fill="#ffffff" fill-opacity="0.55"></circle><circle cx="549" cy="43" r="1" fill="#ffffff" fill-opacity="0.55"></circle><circle cx="368" cy="62" r="1" fill="#60a5fa" fill-opacity="0.90"></circle><circle cx="1168" cy="67" r="1" fill="#60a5fa" fill-opacity="0.35"></circle><circle cx="1042" cy="65" r="1" fill="#93c5fd" fill-opacity="0.35"></circle><circle cx="76" cy="68" r="2" fill="#a78bfa" fill-opacity="0.55"></circle><circle cx="927" cy="0" r="1" fill="#a78bfa" fill-opacity="0.45"></circle><circle cx="944" cy="74" r="2" fill="#60a5fa" fill-opacity="0.55"></circle><circle cx="842" cy="21" r="1" fill="#a78bfa" fill-opacity="0.45"></circle><circle cx="46" cy="14" r="1" fill="#ffffff" fill-opacity="0.55"></circle><circle cx="733" cy="55" r="2" fill="#ffffff" fill-opacity="0.35"></circle><circle cx="697" cy="26" r="1" fill="#ffffff" fill-opacity="0.90"></circle><circle cx="868" cy="76" r="1" fill="#a78bfa" fill-opacity="0.45"></circle><circle cx="935" cy="30" r="1" fill="#93c5fd" fill-opacity="0.45"></circle><circle cx="489" cy="22" r="2" fill="#ffffff" fill-opacity="0.35"></circle><circle cx="294" cy="69" r="2" fill="#93c5fd" fill-opacity="0.70"></circle><circle cx="612" cy="45" r="2" fill="#60a5fa" fill-opacity="0.90"></circle><circle cx="282" cy="5" r="2" fill="#ffffff" fill-opacity="0.90"></circle><circle cx="1153" cy="11" r="1" fill="#60a5fa" fill-opacity="0.55"></circle><circle cx="273" cy="67" r="2" fill="#a78bfa" fill-opacity="0.55"></circle><circle cx="344" cy="54" r="1" fill="#a78bfa" fill-opacity="0.35"></circle><circle cx="771" cy="13" r="2" fill="#93c5fd" fill-opacity="0.45"></circle><circle cx="1085" cy="10" r="1" fill="#a78bfa" fill-opacity="0.35"></circle><circle cx="995" cy="13" r="1" fill="#60a5fa" fill-opacity="0.55"></circle><circle cx="54" cy="62" r="1" fill="#ffffff" fill-opacity="0.90"></circle><circle cx="613" cy="42" r="2" fill="#a78bfa" fill-opacity="0.45"></circle><circle cx="68" cy="0" r="2" fill="#60a5fa" fill-opacity="0.45"></circle><circle cx="1182" cy="38" r="1" fill="#a78bfa" fill-opacity="0.35"></circle><circle cx="888" cy="69" r="1" fill="#60a5fa" fill-opacity="0.90"></circle><circle cx="626" cy="47" r="2" fill="#93c5fd" fill-opacity="0.35"></circle><circle cx="817" cy="5" r="1" fill="#60a5fa" fill-opacity="0.70"></circle><circle cx="13" cy="8" r="1" fill="#a78bfa" fill-opacity="0.90"></circle><circle cx="101" cy="19" r="2" fill="#93c5fd" fill-opacity="0.90"></circle><circle cx="496" cy="0" r="1" fill="#60a5fa" fill-opacity="0.90"></circle><circle cx="229" cy="57" r="1" fill="#ffffff" fill-opacity="0.45"></circle><circle cx="27" cy="76" r="2" fill="#60a5fa" fill-opacity="0.70"></circle><circle cx="488" cy="37" r="2" fill="#a78bfa" fill-opacity="0.55"></circle><circle cx="905" cy="40" r="2" fill="#a78bfa" fill-opacity="0.55"></circle><circle cx="818" cy="36" r="1" fill="#ffffff" fill-opacity="0.35"></circle><circle cx="925" cy="19" r="2" fill="#a78bfa" fill-opacity="0.45"></circle><circle cx="939" cy="10" r="2" fill="#60a5fa" fill-opacity="0.55"></circle><circle cx="37" cy="51" r="1" fill="#93c5fd" fill-opacity="0.45"></circle><circle cx="756" cy="21" r="2" fill="#93c5fd" fill-opacity="0.55"></circle><circle cx="853" cy="30" r="2" fill="#93c5fd" fill-opacity="0.90"></circle></g><rect x="120" y="41" width="960" height="2" rx="1" fill="url(#line201)" opacity=".95"></rect><style>

    @keyframes sweep {
      from { transform: translateX(-80px); opacity: .65; }
      to { transform: translateX(80px); opacity: 1; }
    }
    #dividerStars201 { animation: sweep 16s linear infinite alternate; }
  
</style>
</svg><mask id="satori_om-id-0-0"><rect x="0" y="0" width="0" height="84" fill="#fff" mask="url(#satori_om-id)"/></mask><mask id="satori_om-id-0-0-0"><rect x="0" y="0" width="0" height="84" fill="#fff" mask="url(#satori_om-id)"/></mask><mask id="satori_om-id-0-0-0-0"><rect x="0" y="0" width="0" height="84" fill="#fff" mask="url(#satori_om-id)"/></mask><mask id="satori_om-id-0-0-0-1"><rect x="0" y="0" width="0" height="84" fill="#fff" mask="url(#satori_om-id)"/></mask><mask id="satori_om-id-0-0-0-2"><rect x="0" y="0" width="0" height="84" fill="#fff" mask="url(#satori_om-id)"/></mask><mask id="satori_om-id-0-0-0-3"><rect x="0" y="0" width="0" height="84" fill="#fff" mask="url(#satori_om-id)"/></mask><mask id="satori_om-id-0-1"><rect x="0" y="0" width="0" height="84" fill="#fff" mask="url(#satori_om-id)"/></mask><mask id="satori_om-id-0-2"><rect x="0" y="0" width="0" height="84" fill="#fff" mask="url(#satori_om-id)"/></mask><mask id="satori_om-id-0-2-0"><rect x="0" y="0" width="0" height="84" fill="#fff" mask="url(#satori_om-id)"/></mask><mask id="satori_om-id-0-2-1"><rect x="0" y="0" width="0" height="84" fill="#fff" mask="url(#satori_om-id)"/></mask><mask id="satori_om-id-0-2-2"><rect x="0" y="0" width="0" height="84" fill="#fff" mask="url(#satori_om-id)"/></mask><mask id="satori_om-id-0-2-3"><rect x="0" y="0" width="0" height="84" fill="#fff" mask="url(#satori_om-id)"/></mask><mask id="satori_om-id-0-2-4"><rect x="0" y="0" width="0" height="84" fill="#fff" mask="url(#satori_om-id)"/></mask><mask id="satori_om-id-0-2-5"><rect x="0" y="0" width="0" height="84" fill="#fff" mask="url(#satori_om-id)"/></mask><mask id="satori_om-id-0-2-6"><rect x="0" y="0" width="0" height="84" fill="#fff" mask="url(#satori_om-id)"/></mask><mask id="satori_om-id-0-2-7"><rect x="0" y="0" width="0" height="84" fill="#fff" mask="url(#satori_om-id)"/></mask><mask id="satori_om-id-0-2-8"><rect x="0" y="0" width="0" height="84" fill="#fff" mask="url(#satori_om-id)"/></mask><mask id="satori_om-id-0-2-9"><rect x="0" y="0" width="0" height="84" fill="#fff" mask="url(#satori_om-id)"/></mask><mask id="satori_om-id-0-2-10"><rect x="0" y="0" width="0" height="84" fill="#fff" mask="url(#satori_om-id)"/></mask><mask id="satori_om-id-0-2-11"><rect x="0" y="0" width="0" height="84" fill="#fff" mask="url(#satori_om-id)"/></mask><mask id="satori_om-id-0-2-12"><rect x="0" y="0" width="0" height="84" fill="#fff" mask="url(#satori_om-id)"/></mask><mask id="satori_om-id-0-2-13"><rect x="0" y="0" width="0" height="84" fill="#fff" mask="url(#satori_om-id)"/></mask><mask id="satori_om-id-0-2-14"><rect x="0" y="0" width="0" height="84" fill="#fff" mask="url(#satori_om-id)"/></mask><mask id="satori_om-id-0-2-15"><rect x="0" y="0" width="0" height="84" fill="#fff" mask="url(#satori_om-id)"/></mask><mask id="satori_om-id-0-2-16"><rect x="0" y="0" width="0" height="84" fill="#fff" mask="url(#satori_om-id)"/></mask><mask id="satori_om-id-0-2-17"><rect x="0" y="0" width="0" height="84" fill="#fff" mask="url(#satori_om-id)"/></mask><mask id="satori_om-id-0-2-18"><rect x="0" y="0" width="0" height="84" fill="#fff" mask="url(#satori_om-id)"/></mask><mask id="satori_om-id-0-2-19"><rect x="0" y="0" width="0" height="84" fill="#fff" mask="url(#satori_om-id)"/></mask><mask id="satori_om-id-0-2-20"><rect x="0" y="0" width="0" height="84" fill="#fff" mask="url(#satori_om-id)"/></mask><mask id="satori_om-id-0-2-21"><rect x="0" y="0" width="0" height="84" fill="#fff" mask="url(#satori_om-id)"/></mask><mask id="satori_om-id-0-2-22"><rect x="0" y="0" width="0" height="84" fill="#fff" mask="url(#satori_om-id)"/></mask><mask id="satori_om-id-0-2-23"><rect x="0" y="0" width="0" height="84" fill="#fff" mask="url(#satori_om-id)"/></mask><mask id="satori_om-id-0-2-24"><rect x="0" y="0" width="0" height="84" fill="#fff" mask="url(#satori_om-id)"/></mask><mask id="satori_om-id-0-2-25"><rect x="0" y="0" width="0" height="84" fill="#fff" mask="url(#satori_om-id)"/></mask><mask id="satori_om-id-0-2-26"><rect x="0" y="0" width="0" height="84" fill="#fff" mask="url(#satori_om-id)"/></mask><mask id="satori_om-id-0-2-27"><rect x="0" y="0" width="0" height="84" fill="#fff" mask="url(#satori_om-id)"/></mask><mask id="satori_om-id-0-2-28"><rect x="0" y="0" width="0" height="84" fill="#fff" mask="url(#satori_om-id)"/></mask><mask id="satori_om-id-0-2-29"><rect x="0" y="0" width="0" height="84" fill="#fff" mask="url(#satori_om-id)"/></mask><mask id="satori_om-id-0-2-30"><rect x="0" y="0" width="0" height="84" fill="#fff" mask="url(#satori_om-id)"/></mask><mask id="satori_om-id-0-2-31"><rect x="0" y="0" width="0" height="84" fill="#fff" mask="url(#satori_om-id)"/></mask><mask id="satori_om-id-0-2-32"><rect x="0" y="0" width="0" height="84" fill="#fff" mask="url(#satori_om-id)"/></mask><mask id="satori_om-id-0-2-33"><rect x="0" y="0" width="0" height="84" fill="#fff" mask="url(#satori_om-id)"/></mask><mask id="satori_om-id-0-2-34"><rect x="0" y="0" width="0" height="84" fill="#fff" mask="url(#satori_om-id)"/></mask><mask id="satori_om-id-0-2-35"><rect x="0" y="0" width="0" height="84" fill="#fff" mask="url(#satori_om-id)"/></mask><mask id="satori_om-id-0-2-36"><rect x="0" y="0" width="0" height="84" fill="#fff" mask="url(#satori_om-id)"/></mask><mask id="satori_om-id-0-2-37"><rect x="0" y="0" width="0" height="84" fill="#fff" mask="url(#satori_om-id)"/></mask><mask id="satori_om-id-0-2-38"><rect x="0" y="0" width="0" height="84" fill="#fff" mask="url(#satori_om-id)"/></mask><mask id="satori_om-id-0-2-39"><rect x="0" y="0" width="0" height="84" fill="#fff" mask="url(#satori_om-id)"/></mask><mask id="satori_om-id-0-2-40"><rect x="0" y="0" width="0" height="84" fill="#fff" mask="url(#satori_om-id)"/></mask><mask id="satori_om-id-0-2-41"><rect x="0" y="0" width="0" height="84" fill="#fff" mask="url(#satori_om-id)"/></mask><mask id="satori_om-id-0-2-42"><rect x="0" y="0" width="0" height="84" fill="#fff" mask="url(#satori_om-id)"/></mask><mask id="satori_om-id-0-2-43"><rect x="0" y="0" width="0" height="84" fill="#fff" mask="url(#satori_om-id)"/></mask><mask id="satori_om-id-0-2-44"><rect x="0" y="0" width="0" height="84" fill="#fff" mask="url(#satori_om-id)"/></mask><mask id="satori_om-id-0-2-45"><rect x="0" y="0" width="0" height="84" fill="#fff" mask="url(#satori_om-id)"/></mask><mask id="satori_om-id-0-2-46"><rect x="0" y="0" width="0" height="84" fill="#fff" mask="url(#satori_om-id)"/></mask><mask id="satori_om-id-0-2-47"><rect x="0" y="0" width="0" height="84" fill="#fff" mask="url(#satori_om-id)"/></mask><mask id="satori_om-id-0-2-48"><rect x="0" y="0" width="0" height="84" fill="#fff" mask="url(#satori_om-id)"/></mask><mask id="satori_om-id-0-2-49"><rect x="0" y="0" width="0" height="84" fill="#fff" mask="url(#satori_om-id)"/></mask><mask id="satori_om-id-0-2-50"><rect x="0" y="0" width="0" height="84" fill="#fff" mask="url(#satori_om-id)"/></mask><mask id="satori_om-id-0-2-51"><rect x="0" y="0" width="0" height="84" fill="#fff" mask="url(#satori_om-id)"/></mask><mask id="satori_om-id-0-2-52"><rect x="0" y="0" width="0" height="84" fill="#fff" mask="url(#satori_om-id)"/></mask><mask id="satori_om-id-0-2-53"><rect x="0" y="0" width="0" height="84" fill="#fff" mask="url(#satori_om-id)"/></mask><mask id="satori_om-id-0-2-54"><rect x="0" y="0" width="0" height="84" fill="#fff" mask="url(#satori_om-id)"/></mask><mask id="satori_om-id-0-3"><rect x="0" y="0" width="0" height="84" fill="#fff" mask="url(#satori_om-id)"/></mask></svg>