<!-- Generated by readme-aura https://github.com/collectioneur/readme-aura -->
<svg width="1200" height="84" viewBox="0 0 1200 84" xmlns="http://www.w3.org/2000/svg"><clipPath id="satori_cp-id"><path x="0" y="0" width="1200" height="84" d="M18,0 h1164 a18,18 0 0 1 18,18 v48 a18,18 0 0 1 -18,18 h-1164 a18,18 0 0 1 -18,-18 v-48 a18,18 0 0 1 18,-18"/></clipPath><mask id="satori_om-id"><rect x="0" y="0" width="1200" height="84" fill="#fff"/></mask><path x="0" y="0" width="1200" height="84" fill="#020617" d="M18,0 h1164 a18,18 0 0 1 18,18 v48 a18,18 0 0 1 -18,18 h-1164 a18,18 0 0 1 -18,-18 v-48 a18,18 0 0 1 18,-18"/><clipPath id="satori_cp-id-0" clip-path="url(#satori_cp-id)"><rect x="0" y="0" width="1200" height="84"/></clipPath><mask id="satori_om-id-0"><rect x="0" y="0" width="1200" height="84" fill="#fff" mask="url(#satori_om-id)"/></mask><svg x="0" y="0" width="1200" height="84" preserveAspectRatio="none" clip-path="url(#satori_cp-id-0)" mask="url(#satori_om-id-0)"><defs><linearGradient id="line203" x1="0" x2="1" y1="0" y2="0"><stop offset="0%" stop-color="#020617"></stop><stop offset="35%" stop-color="#2563eb"></stop><stop offset="65%" stop-color="#7c3aed"></stop><stop offset="100%" stop-color="#020617"></stop></linearGradient></defs><rect width="1200" height="84" fill="#020617"></rect><g id="dividerStars203"><circle cx="185" cy="5" r="1" fill="#93c5fd" fill-opacity="0.90"></circle><circle cx="59" cy="76" r="1" fill="#93c5fd" fill-opacity="0.90"></circle><circle cx="45" cy="31" r="1" fill="#93c5fd" fill-opacity="0.35"></circle><circle cx="240" cy="13" r="2" fill="#60a5fa" fill-opacity="0.55"></circle><circle cx="783" cy="56" r="1" fill="#ffffff" fill-opacity="0.70"></circle><circle cx="610" cy="9" r="1" fill="#a78bfa" fill-opacity="0.90"></circle><circle cx="530" cy="78" r="1" fill="#ffffff" fill-opacity="0.35"></circle><circle cx="773" cy="76" r="1" fill="#60a5fa" fill-opacity="0.70"></circle><circle cx="137" cy="80" r="2" fill="#60a5fa" fill-opacity="0.70"></circle><circle cx="888" cy="43" r="2" fill="#ffffff" fill-opacity="0.55"></circle><circle cx="468" cy="22" r="2" fill="#93c5fd" fill-opacity="0.35"></circle><circle cx="164" cy="11" r="1" fill="#93c5fd" fill-opacity="0.70"></circle><circle cx="530" cy="33" r="1" fill="#ffffff" fill-opacity="0.70"></circle><circle cx="93" cy="23" r="1" fill="#a78bfa" fill-opacity="0.35"></circle><circle cx="1056" cy="4" r="1" fill="#60a5fa" fill-opacity="0.45"></circle><circle cx="761" cy="5" r="2" fill="#ffffff" fill-opacity="0.45"></circle><circle cx="800" cy="48" r="1" fill="#a78bfa" fill-opacity="0.45"></circle><circle cx="583" cy="2" r="1" fill="#ffffff" fill-opacity="0.70"></circle><circle cx="495" cy="59" r="1" fill="#ffffff" fill-opacity="0.45"></circle><circle cx="444" cy="28" r="2" fill="#ffffff" fill-opacity="0.35"></circle><circle cx="1141" cy="30" r="1" fill="#a78bfa" fill-opacity="0.45"></circle><circle cx="147" cy="32" r="1" fill="#ffffff" fill-opacity="0.90"></circle><circle cx="160" cy="32" r="1" fill="#93c5fd" fill-opacity="0.55"></circle><circle cx="844" cy="13" r="2" fill="#a78bfa" fill-opacity="0.55"></circle><circle cx="253" cy="52" r="2" fill="#ffffff" fill-opacity="0.90"></circle><circle cx="155" cy="54" r="1" fill="#a78bfa" fill-opacity="0.55"></circle><circle cx="227" cy="9" r="1" fill="#93c5fd" fill-opacity="0.45"></circle><circle cx="364" cy="15" r="1" fill="#ffffff" fill-opacity="0.45"></circle><circle cx="982" cy="67" r="2" fill="#ffffff" fill-opacity="0.45"></circle><circle cx="231" cy="32" r="2" fill="#60a5fa" fill-opacity="0.90"></circle><circle cx="779" cy="75" r="1" fill="#ffffff" fill-opacity="0.35"></circle><circle cx="99" cy="51" r="1" fill="#ffffff" fill-opacity="0.35"></circle><circle cx="847" cy="59" r="1" fill="#a78bfa" fill-opacity="0.55"></circle><circle cx="865" cy="46" r="2" fill="#60a5fa" fill-opacity="0.90"></circle><circle cx="337" cy="22" r="2" fill="#ffffff" fill-opacity="0.55"></circle><circle cx="1108" cy="6" r="1" fill="#93c5fd" fill-opacity="0.55"></circle><circle cx="683" cy="57" r="2" fill="#60a5fa" fill-opacity="0.90"></circle><circle cx="284" cy="74" r="1" fill="#93c5fd" fill-opacity="0.55"></circle><circle cx="334" cy="57" r="1" fill="#93c5fd" fill-opacity="0.70"></circle><circle cx="705" cy="64" r="1" fill="#a78bfa" fill-opacity="0.55"></circle><circle cx="1032" cy="7" r="1" fill="#a78bfa" fill-opacity="0.70"></circle><circle cx="98" cy="57" r="1" fill="#60a5fa" fill-opacity="0.55"></circle><circle cx="571" cy="66" r="1" fill="#ffffff" fill-opacity="0.45"></circle><circle cx="1034" cy="49" r="1" fill="#60a5fa" fill-opacity="0.55"></circle><circle cx="923" cy="4" r="1" fill="#ffffff" fill-opacity="0.45"></circle><circle cx="1115" cy="35" r="1" fill="#60a5fa" fill-opacity="0.55"></circle><circle cx="140" cy="34" r="1" fill="#93c5fd" fill-opacity="0.45"></circle><circle cx="426" cy="55" r="1" fill="#60a5fa" fill-opacity="0.45"></circle><circle cx="103" cy="69" r="1" fill="#ffffff" fill-opacity="0.90"></circle><circle cx="271" cy="35" r="1" fill="#93c5fd" fill-opacity="0.90"></circle><circle cx="425" cy="14" r="1" fill="#93c5fd" fill-opacity="0.90"></circle><circle cx="94" cy="61" r="1" fill="#93c5fd" fill-opacity="0.90"></circle><circle cx="135" cy="0" r="1" fill="#ffffff" fill-opacity="0.45"></circle><circle cx="24" cy="7" r="1" fill="#a78bfa" fill-opacity="0.55"></circle><circle cx="858" cy="43" r="2" fill="#93c5fd" fill-opacity="0.90"></circle></g><rect x="120" y="41" width="960" height="2" rx="1" fill="url(#line203)" opacity=".95"></rect><style>

    @keyframes sweep {
      from { transform: translateX(-80px); opacity: .65; }
      to { transform: translateX(80px); opacity: 1; }
    }
    #dividerStars203 { animation: sweep 16s linear infinite alternate; }
  
</style>
</svg><mask id="satori_om-id-0-0"><rect x="0" y="0" width="0" height="84" fill="#fff" mask="url(#satori_om-id)"/></mask><mask id="satori_om-id-0-0-0"><rect x="0" y="0" width="0" height="84" fill="#fff" mask="url(#satori_om-id)"/></mask><mask id="satori_om-id-0-0-0-0"><rect x="0" y="0" width="0" height="84" fill="#fff" mask="url(#satori_om-id)"/></mask><mask id="satori_om-id-0-0-0-1"><rect x="0" y="0" width="0" height="84" fill="#fff" mask="url(#satori_om-id)"/></mask><mask id="satori_om-id-0-0-0-2"><rect x="0" y="0" width="0" height="84" fill="#fff" mask="url(#satori_om-id)"/></mask><mask id="satori_om-id-0-0-0-3"><rect x="0" y="0" width="0" height="84" fill="#fff" mask="url(#satori_om-id)"/></mask><mask id="satori_om-id-0-1"><rect x="0" y="0" width="0" height="84" fill="#fff" mask="url(#satori_om-id)"/></mask><mask id="satori_om-id-0-2"><rect x="0" y="0" width="0" height="84" fill="#fff" mask="url(#satori_om-id)"/></mask><mask id="satori_om-id-0-2-0"><rect x="0" y="0" width="0" height="84" fill="#fff" mask="url(#satori_om-id)"/></mask><mask id="satori_om-id-0-2-1"><rect x="0" y="0" width="0" height="84" fill="#fff" mask="url(#satori_om-id)"/></mask><mask id="satori_om-id-0-2-2"><rect x="0" y="0" width="0" height="84" fill="#fff" mask="url(#satori_om-id)"/></mask><mask id="satori_om-id-0-2-3"><rect x="0" y="0" width="0" height="84" fill="#fff" mask="url(#satori_om-id)"/></mask><mask id="satori_om-id-0-2-4"><rect x="0" y="0" width="0" height="84" fill="#fff" mask="url(#satori_om-id)"/></mask><mask id="satori_om-id-0-2-5"><rect x="0" y="0" width="0" height="84" fill="#fff" mask="url(#satori_om-id)"/></mask><mask id="satori_om-id-0-2-6"><rect x="0" y="0" width="0" height="84" fill="#fff" mask="url(#satori_om-id)"/></mask><mask id="satori_om-id-0-2-7"><rect x="0" y="0" width="0" height="84" fill="#fff" mask="url(#satori_om-id)"/></mask><mask id="satori_om-id-0-2-8"><rect x="0" y="0" width="0" height="84" fill="#fff" mask="url(#satori_om-id)"/></mask><mask id="satori_om-id-0-2-9"><rect x="0" y="0" width="0" height="84" fill="#fff" mask="url(#satori_om-id)"/></mask><mask id="satori_om-id-0-2-10"><rect x="0" y="0" width="0" height="84" fill="#fff" mask="url(#satori_om-id)"/></mask><mask id="satori_om-id-0-2-11"><rect x="0" y="0" width="0" height="84" fill="#fff" mask="url(#satori_om-id)"/></mask><mask id="satori_om-id-0-2-12"><rect x="0" y="0" width="0" height="84" fill="#fff" mask="url(#satori_om-id)"/></mask><mask id="satori_om-id-0-2-13"><rect x="0" y="0" width="0" height="84" fill="#fff" mask="url(#satori_om-id)"/></mask><mask id="satori_om-id-0-2-14"><rect x="0" y="0" width="0" height="84" fill="#fff" mask="url(#satori_om-id)"/></mask><mask id="satori_om-id-0-2-15"><rect x="0" y="0" width="0" height="84" fill="#fff" mask="url(#satori_om-id)"/></mask><mask id="satori_om-id-0-2-16"><rect x="0" y="0" width="0" height="84" fill="#fff" mask="url(#satori_om-id)"/></mask><mask id="satori_om-id-0-2-17"><rect x="0" y="0" width="0" height="84" fill="#fff" mask="url(#satori_om-id)"/></mask><mask id="satori_om-id-0-2-18"><rect x="0" y="0" width="0" height="84" fill="#fff" mask="url(#satori_om-id)"/></mask><mask id="satori_om-id-0-2-19"><rect x="0" y="0" width="0" height="84" fill="#fff" mask="url(#satori_om-id)"/></mask><mask id="satori_om-id-0-2-20"><rect x="0" y="0" width="0" height="84" fill="#fff" mask="url(#satori_om-id)"/></mask><mask id="satori_om-id-0-2-21"><rect x="0" y="0" width="0" height="84" fill="#fff" mask="url(#satori_om-id)"/></mask><mask id="satori_om-id-0-2-22"><rect x="0" y="0" width="0" height="84" fill="#fff" mask="url(#satori_om-id)"/></mask><mask id="satori_om-id-0-2-23"><rect x="0" y="0" width="0" height="84" fill="#fff" mask="url(#satori_om-id)"/></mask><mask id="satori_om-id-0-2-24"><rect x="0" y="0" width="0" height="84" fill="#fff" mask="url(#satori_om-id)"/></mask><mask id="satori_om-id-0-2-25"><rect x="0" y="0" width="0" height="84" fill="#fff" mask="url(#satori_om-id)"/></mask><mask id="satori_om-id-0-2-26"><rect x="0" y="0" width="0" height="84" fill="#fff" mask="url(#satori_om-id)"/></mask><mask id="satori_om-id-0-2-27"><rect x="0" y="0" width="0" height="84" fill="#fff" mask="url(#satori_om-id)"/></mask><mask id="satori_om-id-0-2-28"><rect x="0" y="0" width="0" height="84" fill="#fff" mask="url(#satori_om-id)"/></mask><mask id="satori_om-id-0-2-29"><rect x="0" y="0" width="0" height="84" fill="#fff" mask="url(#satori_om-id)"/></mask><mask id="satori_om-id-0-2-30"><rect x="0" y="0" width="0" height="84" fill="#fff" mask="url(#satori_om-id)"/></mask><mask id="satori_om-id-0-2-31"><rect x="0" y="0" width="0" height="84" fill="#fff" mask="url(#satori_om-id)"/></mask><mask id="satori_om-id-0-2-32"><rect x="0" y="0" width="0" height="84" fill="#fff" mask="url(#satori_om-id)"/></mask><mask id="satori_om-id-0-2-33"><rect x="0" y="0" width="0" height="84" fill="#fff" mask="url(#satori_om-id)"/></mask><mask id="satori_om-id-0-2-34"><rect x="0" y="0" width="0" height="84" fill="#fff" mask="url(#satori_om-id)"/></mask><mask id="satori_om-id-0-2-35"><rect x="0" y="0" width="0" height="84" fill="#fff" mask="url(#satori_om-id)"/></mask><mask id="satori_om-id-0-2-36"><rect x="0" y="0" width="0" height="84" fill="#fff" mask="url(#satori_om-id)"/></mask><mask id="satori_om-id-0-2-37"><rect x="0" y="0" width="0" height="84" fill="#fff" mask="url(#satori_om-id)"/></mask><mask id="satori_om-id-0-2-38"><rect x="0" y="0" width="0" height="84" fill="#fff" mask="url(#satori_om-id)"/></mask><mask id="satori_om-id-0-2-39"><rect x="0" y="0" width="0" height="84" fill="#fff" mask="url(#satori_om-id)"/></mask><mask id="satori_om-id-0-2-40"><rect x="0" y="0" width="0" height="84" fill="#fff" mask="url(#satori_om-id)"/></mask><mask id="satori_om-id-0-2-41"><rect x="0" y="0" width="0" height="84" fill="#fff" mask="url(#satori_om-id)"/></mask><mask id="satori_om-id-0-2-42"><rect x="0" y="0" width="0" height="84" fill="#fff" mask="url(#satori_om-id)"/></mask><mask id="satori_om-id-0-2-43"><rect x="0" y="0" width="0" height="84" fill="#fff" mask="url(#satori_om-id)"/></mask><mask id="satori_om-id-0-2-44"><rect x="0" y="0" width="0" height="84" fill="#fff" mask="url(#satori_om-id)"/></mask><mask id="satori_om-id-0-2-45"><rect x="0" y="0" width="0" height="84" fill="#fff" mask="url(#satori_om-id)"/></mask><mask id="satori_om-id-0-2-46"><rect x="0" y="0" width="0" height="84" fill="#fff" mask="url(#satori_om-id)"/></mask><mask id="satori_om-id-0-2-47"><rect x="0" y="0" width="0" height="84" fill="#fff" mask="url(#satori_om-id)"/></mask><mask id="satori_om-id-0-2-48"><rect x="0" y="0" width="0" height="84" fill="#fff" mask="url(#satori_om-id)"/></mask><mask id="satori_om-id-0-2-49"><rect x="0" y="0" width="0" height="84" fill="#fff" mask="url(#satori_om-id)"/></mask><mask id="satori_om-id-0-2-50"><rect x="0" y="0" width="0" height="84" fill="#fff" mask="url(#satori_om-id)"/></mask><mask id="satori_om-id-0-2-51"><rect x="0" y="0" width="0" height="84" fill="#fff" mask="url(#satori_om-id)"/></mask><mask id="satori_om-id-0-2-52"><rect x="0" y="0" width="0" height="84" fill="#fff" mask="url(#satori_om-id)"/></mask><mask id="satori_om-id-0-2-53"><rect x="0" y="0" width="0" height="84" fill="#fff" mask="url(#satori_om-id)"/></mask><mask id="satori_om-id-0-2-54"><rect x="0" y="0" width="0" height="84" fill="#fff" mask="url(#satori_om-id)"/></mask><mask id="satori_om-id-0-3"><rect x="0" y="0" width="0" height="84" fill="#fff" mask="url(#satori_om-id)"/></mask></svg>