<!-- Generated by readme-aura https://github.com/collectioneur/readme-aura -->
<svg width="1200" height="84" viewBox="0 0 1200 84" xmlns="http://www.w3.org/2000/svg"><clipPath id="satori_cp-id"><path x="0" y="0" width="1200" height="84" d="M18,0 h1164 a18,18 0 0 1 18,18 v48 a18,18 0 0 1 -18,18 h-1164 a18,18 0 0 1 -18,-18 v-48 a18,18 0 0 1 18,-18"/></clipPath><mask id="satori_om-id"><rect x="0" y="0" width="1200" height="84" fill="#fff"/></mask><path x="0" y="0" width="1200" height="84" fill="#020617" d="M18,0 h1164 a18,18 0 0 1 18,18 v48 a18,18 0 0 1 -18,18 h-1164 a18,18 0 0 1 -18,-18 v-48 a18,18 0 0 1 18,-18"/><clipPath id="satori_cp-id-0" clip-path="url(#satori_cp-id)"><rect x="0" y="0" width="1200" height="84"/></clipPath><mask id="satori_om-id-0"><rect x="0" y="0" width="1200" height="84" fill="#fff" mask="url(#satori_om-id)"/></mask><svg x="0" y="0" width="1200" height="84" preserveAspectRatio="none" clip-path="url(#satori_cp-id-0)" mask="url(#satori_om-id-0)"><defs><linearGradient id="line202" x1="0" x2="1" y1="0" y2="0"><stop offset="0%" stop-color="#020617"></stop><stop offset="35%" stop-color="#2563eb"></stop><stop offset="65%" stop-color="#7c3aed"></stop><stop offset="100%" stop-color="#020617"></stop></linearGradient></defs><rect width="1200" height="84" fill="#020617"></rect><g id="dividerStars202"><circle cx="789" cy="82" r="1" fill="#93c5fd" fill-opacity="0.70"></circle><circle cx="401" cy="50" r="1" fill="#a78bfa" fill-opacity="0.70"></circle><circle cx="924" cy="4" r="2" fill="#93c5fd" fill-opacity="0.55"></circle><circle cx="486" cy="63" r="2" fill="#93c5fd" fill-opacity="0.90"></circle><circle cx="823" cy="41" r="1" fill="#a78bfa" fill-opacity="0.45"></circle><circle cx="952" cy="84" r="1" fill="#93c5fd" fill-opacity="0.90"></circle><circle cx="520" cy="57" r="1" fill="#60a5fa" fill-opacity="0.70"></circle><circle cx="93" cy="22" r="2" fill="#ffffff" fill-opacity="0.35"></circle><circle cx="778" cy="33" r="1" fill="#93c5fd" fill-opacity="0.45"></circle><circle cx="413" cy="15" r="1" fill="#93c5fd" fill-opacity="0.45"></circle><circle cx="405" cy="55" r="1" fill="#60a5fa" fill-opacity="0.55"></circle><circle cx="392" cy="38" r="1" fill="#a78bfa" fill-opacity="0.55"></circle><circle cx="496" cy="44" r="1" fill="#93c5fd" fill-opacity="0.90"></circle><circle cx="786" cy="50" r="2" fill="#60a5fa" fill-opacity="0.90"></circle><circle cx="715" cy="52" r="1" fill="#60a5fa" fill-opacity="0.45"></circle><circle cx="706" cy="14" r="1" fill="#60a5fa" fill-opacity="0.90"></circle><circle cx="30" cy="10" r="2" fill="#a78bfa" fill-opacity="0.90"></circle><circle cx="1167" cy="40" r="1" fill="#93c5fd" fill-opacity="0.55"></circle><circle cx="515" cy="76" r="2" fill="#60a5fa" fill-opacity="0.70"></circle><circle cx="263" cy="71" r="1" fill="#a78bfa" fill-opacity="0.90"></circle><circle cx="273" cy="56" r="1" fill="#93c5fd" fill-opacity="0.35"></circle><circle cx="710" cy="83" r="1" fill="#93c5fd" fill-opacity="0.70"></circle><circle cx="54" cy="63" r="1" fill="#93c5fd" fill-opacity="0.45"></circle><circle cx="26" cy="7" r="2" fill="#a78bfa" fill-opacity="0.35"></circle><circle cx="785" cy="0" r="1" fill="#ffffff" fill-opacity="0.45"></circle><circle cx="421" cy="52" r="1" fill="#60a5fa" fill-opacity="0.35"></circle><circle cx="875" cy="63" r="1" fill="#a78bfa" fill-opacity="0.45"></circle><circle cx="353" cy="9" r="1" fill="#a78bfa" fill-opacity="0.70"></circle><circle cx="479" cy="10" r="2" fill="#ffffff" fill-opacity="0.45"></circle><circle cx="86" cy="53" r="1" fill="#a78bfa" fill-opacity="0.55"></circle><circle cx="805" cy="72" r="1" fill="#60a5fa" fill-opacity="0.55"></circle><circle cx="312" cy="31" r="1" fill="#a78bfa" fill-opacity="0.35"></circle><circle cx="1015" cy="49" r="2" fill="#ffffff" fill-opacity="0.90"></circle><circle cx="514" cy="31" r="2" fill="#a78bfa" fill-opacity="0.55"></circle><circle cx="1123" cy="15" r="2" fill="#93c5fd" fill-opacity="0.55"></circle><circle cx="752" cy="77" r="1" fill="#a78bfa" fill-opacity="0.90"></circle><circle cx="304" cy="6" r="2" fill="#93c5fd" fill-opacity="0.90"></circle><circle cx="969" cy="43" r="1" fill="#93c5fd" fill-opacity="0.45"></circle><circle cx="466" cy="10" r="1" fill="#93c5fd" fill-opacity="0.55"></circle><circle cx="405" cy="38" r="1" fill="#a78bfa" fill-opacity="0.45"></circle><circle cx="42" cy="5" r="2" fill="#60a5fa" fill-opacity="0.55"></circle><circle cx="690" cy="25" r="1" fill="#a78bfa" fill-opacity="0.45"></circle><circle cx="29" cy="2" r="1" fill="#a78bfa" fill-opacity="0.55"></circle><circle cx="655" cy="17" r="2" fill="#a78bfa" fill-opacity="0.35"></circle><circle cx="101" cy="84" r="2" fill="#60a5fa" fill-opacity="0.70"></circle><circle cx="257" cy="36" r="1" fill="#a78bfa" fill-opacity="0.90"></circle><circle cx="666" cy="22" r="2" fill="#60a5fa" fill-opacity="0.45"></circle><circle cx="436" cy="52" r="2" fill="#a78bfa" fill-opacity="0.55"></circle><circle cx="485" cy="36" r="1" fill="#a78bfa" fill-opacity="0.35"></circle><circle cx="441" cy="26" r="2" fill="#60a5fa" fill-opacity="0.35"></circle><circle cx="689" cy="27" r="1" fill="#93c5fd" fill-opacity="0.90"></circle><circle cx="681" cy="39" r="1" fill="#60a5fa" fill-opacity="0.55"></circle><circle cx="341" cy="57" r="2" fill="#60a5fa" fill-opacity="0.70"></circle><circle cx="886" cy="48" r="2" fill="#93c5fd" fill-opacity="0.55"></circle><circle cx="159" cy="11" r="1" fill="#93c5fd" fill-opacity="0.45"></circle></g><rect x="120" y="41" width="960" height="2" rx="1" fill="url(#line202)" opacity=".95"></rect><style>

    @keyframes sweep {
      from { transform: translateX(-80px); opacity: .65; }
      to { transform: translateX(80px); opacity: 1; }
    }
    #dividerStars202 { animation: sweep 16s linear infinite alternate; }
  
</style>
</svg><mask id="satori_om-id-0-0"><rect x="0" y="0" width="0" height="84" fill="#fff" mask="url(#satori_om-id)"/></mask><mask id="satori_om-id-0-0-0"><rect x="0" y="0" width="0" height="84" fill="#fff" mask="url(#satori_om-id)"/></mask><mask id="satori_om-id-0-0-0-0"><rect x="0" y="0" width="0" height="84" fill="#fff" mask="url(#satori_om-id)"/></mask><mask id="satori_om-id-0-0-0-1"><rect x="0" y="0" width="0" height="84" fill="#fff" mask="url(#satori_om-id)"/></mask><mask id="satori_om-id-0-0-0-2"><rect x="0" y="0" width="0" height="84" fill="#fff" mask="url(#satori_om-id)"/></mask><mask id="satori_om-id-0-0-0-3"><rect x="0" y="0" width="0" height="84" fill="#fff" mask="url(#satori_om-id)"/></mask><mask id="satori_om-id-0-1"><rect x="0" y="0" width="0" height="84" fill="#fff" mask="url(#satori_om-id)"/></mask><mask id="satori_om-id-0-2"><rect x="0" y="0" width="0" height="84" fill="#fff" mask="url(#satori_om-id)"/></mask><mask id="satori_om-id-0-2-0"><rect x="0" y="0" width="0" height="84" fill="#fff" mask="url(#satori_om-id)"/></mask><mask id="satori_om-id-0-2-1"><rect x="0" y="0" width="0" height="84" fill="#fff" mask="url(#satori_om-id)"/></mask><mask id="satori_om-id-0-2-2"><rect x="0" y="0" width="0" height="84" fill="#fff" mask="url(#satori_om-id)"/></mask><mask id="satori_om-id-0-2-3"><rect x="0" y="0" width="0" height="84" fill="#fff" mask="url(#satori_om-id)"/></mask><mask id="satori_om-id-0-2-4"><rect x="0" y="0" width="0" height="84" fill="#fff" mask="url(#satori_om-id)"/></mask><mask id="satori_om-id-0-2-5"><rect x="0" y="0" width="0" height="84" fill="#fff" mask="url(#satori_om-id)"/></mask><mask id="satori_om-id-0-2-6"><rect x="0" y="0" width="0" height="84" fill="#fff" mask="url(#satori_om-id)"/></mask><mask id="satori_om-id-0-2-7"><rect x="0" y="0" width="0" height="84" fill="#fff" mask="url(#satori_om-id)"/></mask><mask id="satori_om-id-0-2-8"><rect x="0" y="0" width="0" height="84" fill="#fff" mask="url(#satori_om-id)"/></mask><mask id="satori_om-id-0-2-9"><rect x="0" y="0" width="0" height="84" fill="#fff" mask="url(#satori_om-id)"/></mask><mask id="satori_om-id-0-2-10"><rect x="0" y="0" width="0" height="84" fill="#fff" mask="url(#satori_om-id)"/></mask><mask id="satori_om-id-0-2-11"><rect x="0" y="0" width="0" height="84" fill="#fff" mask="url(#satori_om-id)"/></mask><mask id="satori_om-id-0-2-12"><rect x="0" y="0" width="0" height="84" fill="#fff" mask="url(#satori_om-id)"/></mask><mask id="satori_om-id-0-2-13"><rect x="0" y="0" width="0" height="84" fill="#fff" mask="url(#satori_om-id)"/></mask><mask id="satori_om-id-0-2-14"><rect x="0" y="0" width="0" height="84" fill="#fff" mask="url(#satori_om-id)"/></mask><mask id="satori_om-id-0-2-15"><rect x="0" y="0" width="0" height="84" fill="#fff" mask="url(#satori_om-id)"/></mask><mask id="satori_om-id-0-2-16"><rect x="0" y="0" width="0" height="84" fill="#fff" mask="url(#satori_om-id)"/></mask><mask id="satori_om-id-0-2-17"><rect x="0" y="0" width="0" height="84" fill="#fff" mask="url(#satori_om-id)"/></mask><mask id="satori_om-id-0-2-18"><rect x="0" y="0" width="0" height="84" fill="#fff" mask="url(#satori_om-id)"/></mask><mask id="satori_om-id-0-2-19"><rect x="0" y="0" width="0" height="84" fill="#fff" mask="url(#satori_om-id)"/></mask><mask id="satori_om-id-0-2-20"><rect x="0" y="0" width="0" height="84" fill="#fff" mask="url(#satori_om-id)"/></mask><mask id="satori_om-id-0-2-21"><rect x="0" y="0" width="0" height="84" fill="#fff" mask="url(#satori_om-id)"/></mask><mask id="satori_om-id-0-2-22"><rect x="0" y="0" width="0" height="84" fill="#fff" mask="url(#satori_om-id)"/></mask><mask id="satori_om-id-0-2-23"><rect x="0" y="0" width="0" height="84" fill="#fff" mask="url(#satori_om-id)"/></mask><mask id="satori_om-id-0-2-24"><rect x="0" y="0" width="0" height="84" fill="#fff" mask="url(#satori_om-id)"/></mask><mask id="satori_om-id-0-2-25"><rect x="0" y="0" width="0" height="84" fill="#fff" mask="url(#satori_om-id)"/></mask><mask id="satori_om-id-0-2-26"><rect x="0" y="0" width="0" height="84" fill="#fff" mask="url(#satori_om-id)"/></mask><mask id="satori_om-id-0-2-27"><rect x="0" y="0" width="0" height="84" fill="#fff" mask="url(#satori_om-id)"/></mask><mask id="satori_om-id-0-2-28"><rect x="0" y="0" width="0" height="84" fill="#fff" mask="url(#satori_om-id)"/></mask><mask id="satori_om-id-0-2-29"><rect x="0" y="0" width="0" height="84" fill="#fff" mask="url(#satori_om-id)"/></mask><mask id="satori_om-id-0-2-30"><rect x="0" y="0" width="0" height="84" fill="#fff" mask="url(#satori_om-id)"/></mask><mask id="satori_om-id-0-2-31"><rect x="0" y="0" width="0" height="84" fill="#fff" mask="url(#satori_om-id)"/></mask><mask id="satori_om-id-0-2-32"><rect x="0" y="0" width="0" height="84" fill="#fff" mask="url(#satori_om-id)"/></mask><mask id="satori_om-id-0-2-33"><rect x="0" y="0" width="0" height="84" fill="#fff" mask="url(#satori_om-id)"/></mask><mask id="satori_om-id-0-2-34"><rect x="0" y="0" width="0" height="84" fill="#fff" mask="url(#satori_om-id)"/></mask><mask id="satori_om-id-0-2-35"><rect x="0" y="0" width="0" height="84" fill="#fff" mask="url(#satori_om-id)"/></mask><mask id="satori_om-id-0-2-36"><rect x="0" y="0" width="0" height="84" fill="#fff" mask="url(#satori_om-id)"/></mask><mask id="satori_om-id-0-2-37"><rect x="0" y="0" width="0" height="84" fill="#fff" mask="url(#satori_om-id)"/></mask><mask id="satori_om-id-0-2-38"><rect x="0" y="0" width="0" height="84" fill="#fff" mask="url(#satori_om-id)"/></mask><mask id="satori_om-id-0-2-39"><rect x="0" y="0" width="0" height="84" fill="#fff" mask="url(#satori_om-id)"/></mask><mask id="satori_om-id-0-2-40"><rect x="0" y="0" width="0" height="84" fill="#fff" mask="url(#satori_om-id)"/></mask><mask id="satori_om-id-0-2-41"><rect x="0" y="0" width="0" height="84" fill="#fff" mask="url(#satori_om-id)"/></mask><mask id="satori_om-id-0-2-42"><rect x="0" y="0" width="0" height="84" fill="#fff" mask="url(#satori_om-id)"/></mask><mask id="satori_om-id-0-2-43"><rect x="0" y="0" width="0" height="84" fill="#fff" mask="url(#satori_om-id)"/></mask><mask id="satori_om-id-0-2-44"><rect x="0" y="0" width="0" height="84" fill="#fff" mask="url(#satori_om-id)"/></mask><mask id="satori_om-id-0-2-45"><rect x="0" y="0" width="0" height="84" fill="#fff" mask="url(#satori_om-id)"/></mask><mask id="satori_om-id-0-2-46"><rect x="0" y="0" width="0" height="84" fill="#fff" mask="url(#satori_om-id)"/></mask><mask id="satori_om-id-0-2-47"><rect x="0" y="0" width="0" height="84" fill="#fff" mask="url(#satori_om-id)"/></mask><mask id="satori_om-id-0-2-48"><rect x="0" y="0" width="0" height="84" fill="#fff" mask="url(#satori_om-id)"/></mask><mask id="satori_om-id-0-2-49"><rect x="0" y="0" width="0" height="84" fill="#fff" mask="url(#satori_om-id)"/></mask><mask id="satori_om-id-0-2-50"><rect x="0" y="0" width="0" height="84" fill="#fff" mask="url(#satori_om-id)"/></mask><mask id="satori_om-id-0-2-51"><rect x="0" y="0" width="0" height="84" fill="#fff" mask="url(#satori_om-id)"/></mask><mask id="satori_om-id-0-2-52"><rect x="0" y="0" width="0" height="84" fill="#fff" mask="url(#satori_om-id)"/></mask><mask id="satori_om-id-0-2-53"><rect x="0" y="0" width="0" height="84" fill="#fff" mask="url(#satori_om-id)"/></mask><mask id="satori_om-id-0-2-54"><rect x="0" y="0" width="0" height="84" fill="#fff" mask="url(#satori_om-id)"/></mask><mask id="satori_om-id-0-3"><rect x="0" y="0" width="0" height="84" fill="#fff" mask="url(#satori_om-id)"/></mask></svg>